<?xml version="1.0" encoding="UTF-8"?>
<svg xmlns="http://www.w3.org/2000/svg" xmlns:xlink="http://www.w3.org/1999/xlink" viewBox="0 0 30 30" width="30px" height="30px">
<g id="surface174733832">
<path style=" stroke:none;fill-rule:nonzero;fill:rgb(0%,0%,0%);fill-opacity:1;" d="M 14.984375 2.488281 C 14.433594 2.496094 13.992188 2.949219 14 3.5 L 14 4 L 8.5 4 C 8.234375 3.996094 7.972656 4.101562 7.785156 4.289062 C 7.59375 4.476562 7.488281 4.730469 7.488281 5 L 6 5 C 5.640625 4.996094 5.304688 5.183594 5.121094 5.496094 C 4.941406 5.808594 4.941406 6.191406 5.121094 6.503906 C 5.304688 6.816406 5.640625 7.003906 6 7 L 24 7 C 24.359375 7.003906 24.695312 6.816406 24.878906 6.503906 C 25.058594 6.191406 25.058594 5.808594 24.878906 5.496094 C 24.695312 5.183594 24.359375 4.996094 24 5 L 22.515625 5 C 22.515625 4.730469 22.40625 4.476562 22.214844 4.289062 C 22.027344 4.101562 21.765625 3.996094 21.5 4 L 16 4 L 16 3.5 C 16.003906 3.230469 15.898438 2.96875 15.707031 2.777344 C 15.515625 2.585938 15.253906 2.480469 14.984375 2.488281 Z M 6 9 L 7.792969 24.234375 C 7.910156 25.242188 8.761719 26 9.777344 26 L 20.222656 26 C 21.238281 26 22.089844 25.242188 22.207031 24.234375 L 24 9 Z M 6 9 "/>
</g>
</svg>
