<svg xmlns="http://www.w3.org/2000/svg" shape-rendering="geometricPrecision" text-rendering="geometricPrecision" image-rendering="optimizeQuality" fill-rule="evenodd" clip-rule="evenodd" viewBox="0 0 500 512.44"><path fill-rule="nonzero" d="M330.56 302.52c8.23 0 14.9 6.61 14.9 14.75 0 8.15-6.67 14.75-14.9 14.75H109.79c-8.23 0-14.9-6.6-14.9-14.75 0-8.14 6.67-14.75 14.9-14.75h220.77zM440.34 61.29h18.94c11.21 0 21.4 4.58 28.77 11.95l.95 1.04c6.81 7.3 11 17.06 11 27.73v369.71c0 11.17-4.59 21.35-11.98 28.74-7.34 7.4-17.53 11.98-28.74 11.98H100.37c-11.15 0-21.32-4.58-28.71-11.95l-.06-.05c-7.38-7.43-11.94-17.58-11.94-28.72v-20.57H40.72c-11.15 0-21.32-4.58-28.71-11.94l-.06-.06C4.57 431.73 0 421.57 0 410.44V40.72C0 29.57 4.58 19.4 11.95 12.01l.06-.06C19.43 4.57 29.58 0 40.72 0h358.91c11.21 0 21.4 4.58 28.77 11.95l.94 1.04c6.81 7.3 11 17.06 11 27.73v20.57zM70.84 421.21a14.8 14.8 0 0 1 3.79-.48c1.31 0 2.57.16 3.78.48h321.22c2.94 0 5.64-1.22 7.59-3.18 1.98-1.91 3.18-4.61 3.18-7.59V40.72c0-2.73-1-5.21-2.63-7.09l-.55-.51c-1.95-1.96-4.65-3.18-7.59-3.18H40.72c-2.98 0-5.68 1.2-7.6 3.12l-.06.06a10.712 10.712 0 0 0-3.12 7.6v369.72c0 2.98 1.2 5.68 3.12 7.59l.06.06a10.73 10.73 0 0 0 7.6 3.12h30.12zm18.76 29.94v20.57c0 2.99 1.2 5.69 3.12 7.6l.06.06c1.91 1.92 4.61 3.12 7.59 3.12h358.91c2.94 0 5.64-1.22 7.6-3.18 1.98-1.91 3.18-4.61 3.18-7.6V102.01c0-2.73-1-5.21-2.64-7.09l-.54-.51c-1.96-1.96-4.66-3.18-7.6-3.18h-18.94v319.21c0 11.16-4.59 21.34-11.97 28.74-7.34 7.39-17.53 11.97-28.74 11.97H89.6zm240.96-332.02c8.23 0 14.9 6.61 14.9 14.75 0 8.15-6.67 14.76-14.9 14.76H109.79c-8.23 0-14.9-6.61-14.9-14.76 0-8.14 6.67-14.75 14.9-14.75h220.77zm0 91.7c8.23 0 14.9 6.6 14.9 14.75s-6.67 14.75-14.9 14.75H109.79c-8.23 0-14.9-6.6-14.9-14.75s6.67-14.75 14.9-14.75h220.77z"/></svg>