<?xml version="1.0" encoding="utf-8"?><svg version="1.1" id="Layer_1" xmlns="http://www.w3.org/2000/svg" xmlns:xlink="http://www.w3.org/1999/xlink" x="0px" y="0px" width="94.373px" height="122.881px" viewBox="0 0 94.373 122.881" enable-background="new 0 0 94.373 122.881" xml:space="preserve"><g><path d="M8.74,45.729h2.876v-8.74c0-10.142,3.983-19.361,10.4-26.073C28.47,4.167,37.395,0,47.204,0 c9.811,0,18.734,4.167,25.188,10.916c6.417,6.712,10.399,15.932,10.399,26.073v8.74h2.877c2.397,0,4.573,0.996,6.159,2.545 c1.585,1.586,2.545,3.762,2.545,6.159v59.743c0,2.398-0.996,4.574-2.545,6.16c-1.586,1.586-3.762,2.545-6.159,2.545H8.703 c-2.397,0-4.573-0.996-6.159-2.545C0.959,118.75,0,116.574,0,114.176V54.433c0-2.397,0.996-4.573,2.544-6.159 c1.585-1.586,3.762-2.545,6.159-2.545H8.74L8.74,45.729z M43.417,91.018c0-2.35,0.248-4.221,0.733-5.602 c0.495-1.391,1.374-2.713,2.647-3.975c1.347-1.389,2.235-2.539,2.684-3.432c0.449-0.893,0.669-1.793,0.669-2.703 c0-2.805-0.962-4.213-2.895-4.213c-0.861,0-1.576,0.387-2.152,1.158c-0.568,0.773-0.87,1.82-0.907,3.123h-7.593 c0.037-3.25,1.008-5.773,2.913-7.566c1.905-1.793,4.479-2.686,7.74-2.686c3.325,0,5.908,0.865,7.759,2.607 c1.841,1.734,2.757,4.17,2.757,7.293c0,2.584-1.136,5.123-3.407,7.604l-2.227,2.367c-0.732,0.824-1.255,1.682-1.557,2.557 c-0.302,0.885-0.477,2.043-0.513,3.467H43.417L43.417,91.018z M42.721,98.689c0-1.133,0.385-2.068,1.164-2.779 c0.778-0.723,1.768-1.082,2.968-1.082c1.237,0,2.235,0.359,3.004,1.09c0.77,0.729,1.154,1.646,1.154,2.771 c0,1.105-0.376,2.025-1.127,2.754c-0.751,0.738-1.759,1.107-3.032,1.107c-1.255,0-2.253-0.369-3.004-1.107 C43.096,100.715,42.721,99.795,42.721,98.689L42.721,98.689z M17.775,45.729h58.896v-8.74c0-8.519-3.319-16.227-8.704-21.832 C62.62,9.588,55.281,6.122,47.204,6.122c-8.076,0-15.415,3.467-20.762,9.036c-5.347,5.605-8.704,13.313-8.704,21.832v8.74H17.775 L17.775,45.729z M85.706,51.852H8.74c-0.701,0-1.365,0.295-1.807,0.775c-0.479,0.479-0.774,1.106-0.774,1.807v59.743 c0,0.701,0.295,1.365,0.774,1.809c0.479,0.479,1.106,0.773,1.807,0.773h76.966c0.701,0,1.364-0.295,1.807-0.773 c0.479-0.48,0.775-1.107,0.775-1.809V54.433c0-0.701-0.296-1.365-0.775-1.808C87.033,52.146,86.407,51.851,85.706,51.852 L85.706,51.852L85.706,51.852z"/></g></svg>